# WaveFront *.obj file (generated by Cinema 4D)

mtllib ./01.mtl

v 0.000000 0.000000 0.000000
v 87.931576 0.000000 0.000000
v 87.580310 0.000000 -11.063966
v 85.046526 0.000000 -21.836236
v 81.881460 0.000000 -32.419163
v 87.255492 0.000000 11.022932
v 77.399036 0.000000 -42.550480
v 85.572264 0.000000 21.971223
v -87.450393 0.000000 22.453445
v 37.656250 0.000000 -80.023605
v -79.119033 0.000000 43.496057
v 26.945700 0.000000 -82.930336
v -65.816334 0.000000 61.805652
v 16.063442 0.000000 -84.207512
v -48.378152 0.000000 76.231770
v 5.304676 0.000000 -84.315407
v -5.310354 0.000000 -84.405655
v -16.057174 0.000000 -84.174652
v -26.633604 0.000000 -81.969803
v -63.437970 0.000000 -59.572219
v -70.696440 0.000000 -51.363970
v -36.868467 0.000000 -78.349481
v -46.304026 0.000000 -72.963469
v -54.893644 0.000000 -66.355017
v -75.858971 0.000000 -41.703822
v -81.061073 0.000000 -32.094349
v -85.369697 0.000000 -21.919213
v -87.793061 0.000000 -11.090843
v -89.088982 0.000000 0.000000
v -88.689041 0.000000 11.204031
v -83.284714 0.000000 32.974751
v -72.467680 0.000000 52.650851
v -57.097246 0.000000 69.018714
v -37.932090 0.000000 80.609795
v -27.598858 0.000000 84.940552
v -16.611646 0.000000 87.081299
v 27.380015 0.000000 84.267021
v 16.753488 0.000000 87.824859
v -5.613511 0.000000 89.224197
v 5.599310 0.000000 88.998489
v 47.906277 0.000000 -75.488213
v 56.875761 0.000000 -68.750985
v 64.755080 0.000000 -60.809068
v 71.595495 0.000000 -52.017172
v 82.542663 0.000000 32.680952
v 78.641793 0.000000 43.233691
v 72.314742 0.000000 52.539735
v 64.995286 0.000000 61.034636
v 57.059615 0.000000 68.973226
v 47.928795 0.000000 75.523697
v 37.982630 0.000000 80.717196
v 87.020691 0.000000 16.850993
# 52 vertices

vn 0.000000 1.000000 0.000000
vn 0.000000 1.000000 0.000000
vn 0.000000 1.000000 0.000000
# 3 normals

vt 0.784379 0.843755 0.000000
vt 0.500000 0.500000 0.000000
vt 0.739531 0.877441 0.000000
vt 0.056555 0.443980 0.000000
vt 0.054555 0.500000 0.000000
vt 0.362006 0.075297 0.000000
vt 0.416942 0.064594 0.000000
vt 0.526523 0.921577 0.000000
vt 0.580317 0.921038 0.000000
vt 0.583767 0.060876 0.000000
vt 0.636900 0.078665 0.000000
vt 0.061035 0.555454 0.000000
vt 0.739644 0.122382 0.000000
vt 0.785298 0.155134 0.000000
vt 0.473448 0.922028 0.000000
vt 0.824976 0.194827 0.000000
vt 0.861574 0.237301 0.000000
vt 0.146518 0.756820 0.000000
vt 0.182810 0.797861 0.000000
vt 0.893209 0.283832 0.000000
vt 0.912713 0.336595 0.000000
vt 0.268480 0.864817 0.000000
vt 0.315658 0.891747 0.000000
vt 0.936278 0.444885 0.000000
vt 0.939658 0.500000 0.000000
vt 0.258109 0.118841 0.000000
vt 0.214514 0.154906 0.000000
vt 0.886995 0.712752 0.000000
vt 0.857978 0.760086 0.000000
vt 0.137662 0.236746 0.000000
vt 0.104405 0.282520 0.000000
vt 0.366832 0.909849 0.000000
vt 0.094695 0.660472 0.000000
vt 0.120705 0.708519 0.000000
vt 0.225532 0.831775 0.000000
vt 0.073152 0.609596 0.000000
vt 0.927861 0.390144 0.000000
vt 0.688281 0.900118 0.000000
vt 0.083576 0.335126 0.000000
vt 0.634728 0.914652 0.000000
vt 0.062748 0.387733 0.000000
vt 0.925233 0.609181 0.000000
vt 0.909407 0.662096 0.000000
vt 0.170918 0.190972 0.000000
vt 0.419714 0.920873 0.000000
vt 0.310340 0.096951 0.000000
vt 0.527997 0.055008 0.000000
vt 0.471932 0.053879 0.000000
vt 0.689913 0.096414 0.000000
vt 0.935103 0.415745 0.000000
vt 0.937902 0.555320 0.000000
vt 0.823775 0.804045 0.000000
# 52 texture coordinates

o Disc
usemtl Mat_1
f 41/3/1 1/2/1 42/1/1
f 1/2/1 29/5/1 30/4/2
f 36/7/1 1/2/1 35/6/1
f 1/2/1 14/9/1 16/8/1
f 37/11/1 1/2/1 38/10/1
f 1/2/1 28/12/1 29/5/1
f 49/14/1 1/2/1 50/13/1
f 1/2/1 16/8/1 17/15/1
f 47/17/1 1/2/1 48/16/1
f 1/2/1 20/19/3 21/18/1
f 45/21/2 1/2/1 46/20/1
f 1/2/1 22/23/1 23/22/3
f 2/25/1 1/2/1 6/24/1
f 1/2/1 33/27/2 15/26/2
f 44/29/1 1/2/1 7/28/1
f 1/2/1 11/31/2 32/30/2
f 22/23/1 1/2/1 19/32/1
f 1/2/1 25/34/1 26/33/3
f 1/2/1 24/35/3 20/19/3
f 1/2/1 27/36/3 28/12/1
f 8/37/1 1/2/1 45/21/2
f 1/2/1 26/33/3 27/36/3
f 1/2/1 41/3/1 10/38/1
f 1/2/1 31/39/2 11/31/2
f 1/2/1 10/38/1 12/40/1
f 1/2/1 9/41/2 31/39/2
f 5/43/1 1/2/1 4/42/1
f 1/2/1 30/4/2 9/41/2
f 1/2/1 32/30/2 13/44/2
f 1/2/1 17/15/1 18/45/3
f 1/2/1 34/46/2 35/6/1
f 1/2/1 23/22/3 24/35/3
f 1/2/1 15/26/2 34/46/2
f 1/2/1 39/48/1 40/47/1
f 1/2/1 36/7/1 39/48/1
f 1/2/1 40/47/1 38/10/1
f 1/2/1 18/45/3 19/32/1
f 1/2/1 37/11/1 51/49/1
f 1/2/1 51/49/1 50/13/1
f 1/2/1 49/14/1 48/16/1
f 1/2/1 47/17/1 46/20/1
f 52/50/1 6/24/1 1/2/1 8/37/1
f 1/2/1 21/18/1 25/34/1
f 3/51/1 1/2/1 2/25/1
f 4/42/1 1/2/1 3/51/1
f 7/28/1 1/2/1 5/43/1
f 1/2/1 13/44/2 33/27/2
f 1/2/1 44/29/1 43/52/1
f 1/2/1 43/52/1 42/1/1
f 1/2/1 12/40/1 14/9/1

